<svg width="31" height="31" viewBox="0 0 31 31" fill="none" xmlns="http://www.w3.org/2000/svg">
<g clip-path="url(#clip0_923_269)">
<path d="M28.674 7.5828C27.7113 8.00867 26.6903 8.28836 25.6449 8.41261C26.7467 7.75359 27.5715 6.71643 27.9653 5.4944C26.9312 6.10982 25.7974 6.54112 24.6158 6.77442C23.8221 5.92517 22.77 5.36193 21.6231 5.17229C20.4762 4.98265 19.2989 5.17722 18.274 5.72575C17.2491 6.27429 16.4342 7.14605 15.9559 8.20552C15.4776 9.265 15.3627 10.4528 15.6291 11.5843C13.532 11.4792 11.4805 10.9342 9.60766 9.98479C7.73486 9.03535 6.08266 7.70266 4.75833 6.07325C4.28956 6.8784 4.04322 7.79369 4.04454 8.72536C4.04454 10.554 4.97524 12.1695 6.39021 13.1153C5.55284 13.0889 4.7339 12.8628 4.00166 12.4557V12.5213C4.00191 13.7392 4.42334 14.9195 5.19448 15.8621C5.96562 16.8047 7.03902 17.4516 8.23269 17.6931C7.45536 17.9038 6.64029 17.9348 5.84919 17.7839C6.18574 18.8322 6.84169 19.749 7.72521 20.4059C8.60872 21.0628 9.67556 21.427 10.7764 21.4475C9.68231 22.3067 8.42965 22.9418 7.08997 23.3166C5.7503 23.6914 4.34989 23.7985 2.96881 23.6317C5.37967 25.1822 8.18615 26.0053 11.0525 26.0026C20.7543 26.0026 26.0598 17.9655 26.0598 10.9954C26.0598 10.7684 26.0535 10.5388 26.0434 10.3144C27.076 9.568 27.9673 8.64342 28.6753 7.58406L28.674 7.5828Z" fill="url(#paint0_linear_923_269)"/>
</g>
<defs>
<linearGradient id="paint0_linear_923_269" x1="2.96881" y1="5.10162" x2="27.0254" y2="27.7547" gradientUnits="userSpaceOnUse">
<stop stop-color="#7A7A7A"/>
<stop offset="1" stop-color="#494949"/>
</linearGradient>
<clipPath id="clip0_923_269">
<rect width="30.2667" height="30.2667" fill="white" transform="translate(0.725098 0.450012)"/>
</clipPath>
</defs>
</svg>
