<svg width="167" height="33" viewBox="0 0 167 33" fill="none" xmlns="http://www.w3.org/2000/svg">
<path d="M34.7027 6.91352V26H37.3187V6.91352H34.7027ZM42.7385 21.0882V12.3859H40.0958V21.809C40.0958 24.9322 42.1246 26.3737 44.6338 26.3737C46.9829 26.3737 48.3977 25.3326 49.1185 24.2916H49.1719V26H51.7879V12.3859H49.1719V20.7412C49.1719 22.7967 47.7304 24.1581 45.488 24.1581C43.5394 24.1581 42.7385 22.9301 42.7385 21.0882ZM54.7235 26H57.3395V17.6447C57.3395 15.5892 58.5675 14.2278 60.5161 14.2278C62.5182 14.2278 62.8919 15.4557 62.8919 17.2709V26H65.508V17.6447C65.508 15.5892 66.7359 14.2278 68.6846 14.2278C70.6867 14.2278 71.0604 15.4557 71.0604 17.2709V26H73.6765V16.5502C73.6765 13.6405 72.2884 11.9855 69.5388 11.9855C67.43 11.9855 66.0686 13.0532 65.0809 14.3613H65.0275C64.4669 12.8397 63.3191 11.9855 61.4238 11.9855C59.3683 11.9855 58.1136 13.0532 57.3929 14.0943H57.3395V12.3859H54.7235V26ZM75.5882 12.3859L80.2865 19.0328L75.1344 26H78.2043L81.808 20.7946H81.8614L85.5186 26H88.6151L83.4364 19.0328L88.0812 12.3859H85.0914L81.8881 17.2442H81.8347L78.6047 12.3859H75.5882Z" fill="white"/>
<path d="M95.9396 18.4188C93.4837 17.7514 91.4549 17.3243 91.4549 15.3489C91.4549 13.5871 93.11 12.8664 95.1121 12.8664C98.0751 12.8664 99.1696 14.4146 99.4899 15.9896H100.344C100.024 14.0676 98.7158 12.1723 95.1388 12.1723C92.1757 12.1723 90.6007 13.4536 90.6007 15.4557C90.6007 17.698 92.5494 18.2853 95.3523 19.0862C97.7281 19.7802 99.9704 20.0472 99.9704 22.3963C99.9704 24.3449 98.4489 25.5996 95.8862 25.5996C92.8964 25.5996 91.0812 24.078 90.9744 21.7556H90.1202C90.2003 24.2382 92.2558 26.2936 95.8061 26.2936C98.9294 26.2936 100.825 24.692 100.825 22.3429C100.825 19.9404 98.8493 19.2196 95.9396 18.4188ZM101.764 12.3859V13.0799H103.766V22.7967C103.766 25.4394 104.62 26.0534 106.596 26.0534C106.889 26.0534 107.21 26.0267 107.584 25.9733V25.3059C107.263 25.3326 107.05 25.3593 106.703 25.3593C105.021 25.3593 104.567 24.9055 104.567 22.6632V13.0799H107.584V12.3859H104.567V7.84783H103.766V12.3859H101.764ZM110.514 22.0492V12.3859H109.713V22.0492C109.713 24.8254 111.581 26.2136 113.904 26.2136C116.573 26.2136 118.122 24.8521 118.976 23.4106H119.029V26H119.83V12.3859H119.029V21.2217C119.029 22.9568 117.08 25.5195 114.091 25.5195C111.208 25.5195 110.514 23.7043 110.514 22.0492ZM133.367 15.9629C132.566 13.8541 130.831 12.1723 128.028 12.1723C124.905 12.1723 122.342 14.7884 122.342 19.1929C122.342 23.6776 124.905 26.2936 128.002 26.2936C130.831 26.2936 132.593 24.5585 133.367 22.5831H133.421V26H134.221V6.91352H133.421V15.9629H133.367ZM128.188 25.5996C125.279 25.5996 123.197 23.1971 123.197 19.1929C123.197 15.2689 125.279 12.8664 128.188 12.8664C130.991 12.8664 133.421 15.2689 133.421 19.1929C133.421 23.1971 130.991 25.5996 128.188 25.5996ZM137.21 8.00799V9.50288H138.705V8.00799H137.21ZM137.557 12.3859V26H138.358V12.3859H137.557ZM147.15 26.3203C151.048 26.3203 153.424 23.4373 153.424 19.2463C153.424 15.0553 151.048 12.1723 147.15 12.1723C143.253 12.1723 140.877 15.0553 140.877 19.2463C140.877 23.4373 143.253 26.3203 147.15 26.3203ZM147.15 25.6263C143.653 25.6263 141.731 22.9035 141.731 19.2463C141.731 15.5892 143.653 12.8664 147.15 12.8664C150.647 12.8664 152.569 15.5892 152.569 19.2463C152.569 22.9035 150.647 25.6263 147.15 25.6263ZM160.929 18.4188C158.473 17.7514 156.444 17.3243 156.444 15.3489C156.444 13.5871 158.099 12.8664 160.101 12.8664C163.064 12.8664 164.159 14.4146 164.479 15.9896H165.333C165.013 14.0676 163.705 12.1723 160.128 12.1723C157.165 12.1723 155.59 13.4536 155.59 15.4557C155.59 17.698 157.539 18.2853 160.342 19.0862C162.717 19.7802 164.96 20.0472 164.96 22.3963C164.96 24.3449 163.438 25.5996 160.876 25.5996C157.886 25.5996 156.071 24.078 155.964 21.7556H155.11C155.19 24.2382 157.245 26.2936 160.795 26.2936C163.919 26.2936 165.814 24.692 165.814 22.3429C165.814 19.9404 163.839 19.2196 160.929 18.4188Z" fill="white"/>
<rect x="6.83382" y="3.41683" width="14.5217" height="25.6266" rx="7.26087" stroke="white" stroke-width="2.56266"/>
<rect x="1.28133" y="3.41683" width="25.6266" height="25.6266" rx="12.8133" stroke="white" stroke-width="2.56266"/>
<rect x="1.28133" y="3.41683" width="25.6266" height="25.6266" rx="12.8133" stroke="white" stroke-width="2.56266"/>
<rect x="6.83382" y="3.41683" width="14.5217" height="25.6266" rx="7.26087" stroke="white" stroke-width="2.56266"/>
<rect x="1.28133" y="3.41683" width="25.6266" height="25.6266" rx="12.8133" stroke="white" stroke-width="2.56266"/>
<rect x="1.28133" y="3.41683" width="25.6266" height="25.6266" rx="12.8133" stroke="white" stroke-width="2.56266"/>
<path d="M12.8134 2.98975H15.376V28.6163H12.8134V2.98975Z" fill="white"/>
</svg>
