<svg width="24" height="24" viewBox="0 0 24 24" fill="none" xmlns="http://www.w3.org/2000/svg">
<path d="M2 9.00006H21C21.2652 9.00006 21.5196 9.10542 21.7071 9.29295C21.8946 9.48049 22 9.73484 22 10.0001V20.0001C22 20.2653 21.8946 20.5196 21.7071 20.7072C21.5196 20.8947 21.2652 21.0001 21 21.0001H3C2.73478 21.0001 2.48043 20.8947 2.29289 20.7072C2.10536 20.5196 2 20.2653 2 20.0001V9.00006ZM3 3.00006H18V7.00006H2V4.00006C2 3.73484 2.10536 3.48049 2.29289 3.29295C2.48043 3.10542 2.73478 3.00006 3 3.00006V3.00006ZM15 14.0001V16.0001H18V14.0001H15Z" fill="white"/>
</svg>
